<?xml version="1.0" standalone="no"?>
<!DOCTYPE svg PUBLIC "-//W3C//DTD SVG 20010904//EN"
 "http://www.w3.org/TR/2001/REC-SVG-20010904/DTD/svg10.dtd">
<svg version="1.0" xmlns="http://www.w3.org/2000/svg"
 width="512.000000pt" height="512.000000pt" viewBox="0 0 512.000000 512.000000"
 preserveAspectRatio="xMidYMid meet">

<g transform="translate(0.000000,512.000000) scale(0.100000,-0.100000)"
fill="#000000" stroke="none">
<path d="M2425 4994 c-390 -30 -755 -136 -1052 -306 -694 -397 -1133 -1054
-1234 -1848 -16 -123 -16 -437 0 -565 67 -531 296 -1018 659 -1396 573 -599
1376 -861 2197 -719 590 103 1150 448 1515 935 462 617 606 1410 389 2154
-116 398 -341 767 -646 1061 -200 193 -380 320 -628 440 -323 158 -634 233
-1001 244 -82 2 -171 2 -199 0z m351 -895 c584 -81 1079 -496 1262 -1059 148
-452 80 -948 -183 -1340 -507 -756 -1534 -923 -2250 -365 -279 217 -477 530
-562 885 -37 155 -43 427 -15 595 74 430 326 815 687 1047 195 126 395 200
655 241 55 9 333 6 406 -4z"/>
<path d="M2250 3763 c286 -204 493 -508 579 -851 46 -182 53 -446 16 -630 -71
-365 -297 -711 -597 -916 l-80 -54 57 -7 c85 -11 347 1 450 19 116 22 300 83
406 137 191 96 369 242 490 402 79 104 162 276 195 402 38 146 44 340 14 485
-50 245 -161 442 -352 626 -197 189 -434 311 -725 375 -74 16 -144 22 -288 25
-184 4 -189 4 -165 -13z"/>
</g>
</svg>
