<?xml version='1.0' encoding='utf-8'?>
<svg xmlns="http://www.w3.org/2000/svg" width="1000" height="1000" viewBox="0 0 264.58333 264.58334" version="1.1" id="svg8"> <defs id="defs2"/> <metadata id="metadata5"> </metadata> <g id="layer1" transform="translate(0,-32.41665)"> <g id="g7075" transform="translate(42.105993,42.808222)"> <path style="opacity:1;fill:#333333;fill-opacity:1;stroke:#333333;stroke-width:0;stroke-linecap:butt;stroke-linejoin:miter;stroke-miterlimit:4;stroke-dasharray:none;stroke-dashoffset:0;stroke-opacity:1" d="M 206.56992,121.73299 A 118.08802,118.08802 0 0 1 88.481939,239.82099 118.08802,118.08802 0 0 1 -29.606111,121.73299 118.08802,118.08802 0 0 1 88.481939,3.6449509 118.08802,118.08802 0 0 1 206.56992,121.73299 Z" id="path956"/> <path style="fill:#1a1a1a;stroke:none;stroke-width:0.99999994px;stroke-linecap:butt;stroke-linejoin:miter;stroke-opacity:1" d="M 721.0332 268.99609 L 264.10547 727.91406 L 481.25977 945.07031 A 446.31692 446.31692 0 0 0 493.56055 945.68555 A 446.31692 446.31692 0 0 0 939.87695 499.36914 A 446.31692 446.31692 0 0 0 939.45312 487.41602 L 721.0332 268.99609 z " transform="matrix(0.26458333,0,0,0.26458333,-42.105993,-10.391572)" id="path861"/> <path style="opacity:1;fill:#a02c2c;fill-opacity:1;stroke:#333333;stroke-width:0;stroke-linecap:butt;stroke-linejoin:miter;stroke-miterlimit:4;stroke-dasharray:none;stroke-dashoffset:0;stroke-opacity:1" d="M 88.481939,1.6019251 A 120.13105,120.13105 0 0 0 -31.649186,121.73299 120.13105,120.13105 0 0 0 88.481939,241.86406 120.13105,120.13105 0 0 0 208.613,121.73299 120.13105,120.13105 0 0 0 88.481939,1.6019251 Z m 0,4.0860517 A 116.04495,116.04495 0 0 1 204.5269,121.73299 116.04495,116.04495 0 0 1 88.481939,237.77796 116.04495,116.04495 0 0 1 -27.563085,121.73299 116.04495,116.04495 0 0 1 88.481939,5.6879768 Z" id="path958"/> <path style="opacity:1;fill:#ffffff;fill-opacity:1;stroke:none;stroke-width:5;stroke-linecap:round;stroke-linejoin:round;stroke-miterlimit:4;stroke-dasharray:none;stroke-dashoffset:0;stroke-opacity:1" d="M 169.92969 509.76562 A 324.00002 324.00002 0 0 0 493.56055 823.36914 A 324.00002 324.00002 0 0 0 817.04102 509.76562 L 169.92969 509.76562 z " transform="matrix(0.26458333,0,0,0.26458333,-42.105993,-10.391572)" id="path815"/> <path style="opacity:1;fill:#c83737;fill-opacity:1;stroke:none;stroke-width:5;stroke-linecap:round;stroke-linejoin:round;stroke-miterlimit:4;stroke-dasharray:none;stroke-dashoffset:0;stroke-opacity:1" d="M 493.56055 175.36914 A 324.00001 324.00001 0 0 0 169.92969 488.97266 L 817.04102 488.97266 A 324.00001 324.00001 0 0 0 493.56055 175.36914 z " transform="matrix(0.26458333,0,0,0.26458333,-42.105993,-10.391572)" id="rect817"/> <circle r="27.236511" cy="121.73297" cx="88.481903" id="circle822" style="opacity:1;fill:#000000;fill-opacity:1;stroke:none;stroke-width:1.32291663;stroke-linecap:round;stroke-linejoin:round;stroke-miterlimit:4;stroke-dasharray:none;stroke-dashoffset:0;stroke-opacity:1"/> <path style="opacity:1;fill:#000000;fill-opacity:1;stroke:none;stroke-width:5;stroke-linecap:round;stroke-linejoin:round;stroke-miterlimit:4;stroke-dasharray:none;stroke-dashoffset:0;stroke-opacity:1" d="M 170.08008 488.97266 A 324.00002 324.00002 0 0 0 169.56055 499.36914 A 324.00002 324.00002 0 0 0 169.92969 509.76562 L 817.04102 509.76562 A 324.00002 324.00002 0 0 0 817.56055 499.36914 A 324.00002 324.00002 0 0 0 817.19141 488.97266 L 170.08008 488.97266 z " id="rect828" transform="matrix(0.26458333,0,0,0.26458333,-42.105993,-10.391572)"/> <circle style="opacity:1;fill:#ffffff;fill-opacity:1;stroke:none;stroke-width:1.32291663;stroke-linecap:round;stroke-linejoin:round;stroke-miterlimit:4;stroke-dasharray:none;stroke-dashoffset:0;stroke-opacity:1" id="circle826" cx="88.481903" cy="121.73297" r="21.940561"/> </g> </g> </svg>